<svg xmlns="http://www.w3.org/2000/svg" width="1440" height="11240" viewBox="0 0 1440 11240">
  <defs>
    <style>
      .bg{fill:#f6f6f3}.paper{fill:#fff}.wash{fill:#deded9}.mid{fill:#c8c8c3}.dark{fill:#202020}.ink{fill:#171717}.muted{fill:#666}
      .line{stroke:#171717;stroke-width:2;fill:none}.thin{stroke:#777;stroke-width:1;fill:none}.dash{stroke:#777;stroke-width:1;stroke-dasharray:7 7;fill:#fafafa}
      .h1{font-family:Arial,sans-serif;font-size:106px;font-weight:700;letter-spacing:-6px}.h2{font-family:Arial,sans-serif;font-size:64px;font-weight:700;letter-spacing:-3px}.h3{font-family:Arial,sans-serif;font-size:28px;font-weight:700}.body{font-family:Arial,sans-serif;font-size:22px}.small{font-family:Arial,sans-serif;font-size:16px}.label{font-family:Arial,sans-serif;font-size:14px;font-weight:700;letter-spacing:2px}.white{fill:#fff}
    </style>
    <filter id="shadow" x="-20%" y="-20%" width="150%" height="150%"><feDropShadow dx="16" dy="16" stdDeviation="0" flood-color="#999"/></filter>
  </defs>

  <rect width="1440" height="11240" class="bg"/>
  <g id="NAV">
    <rect x="0" y="0" width="1440" height="76" class="bg"/><path d="M0 76H1440" class="line"/>
    <text x="72" y="49" fill="#171717" font-family="Arial, sans-serif" font-size="28" font-weight="700">RUNABLE</text><text x="890" y="47" fill="#171717" font-family="Arial, sans-serif" font-size="16">How it works</text><text x="1020" y="47" fill="#171717" font-family="Arial, sans-serif" font-size="16">Templates</text><text x="1125" y="47" fill="#171717" font-family="Arial, sans-serif" font-size="16">Pricing</text>
    <rect x="1225" y="16" width="143" height="44" class="ink"/><text x="1253" y="44" fill="#ffffff" font-family="Arial, sans-serif" font-size="16">Build free →</text>
  </g>

  <g id="01-HERO">
    <text x="72" y="168" fill="#666666" font-family="Arial, sans-serif" font-size="14" font-weight="700" letter-spacing="2">AI WEBSITE BUILDER</text>
    <text x="72" y="286" fill="#171717" font-family="Arial, sans-serif" font-size="106" font-weight="700" letter-spacing="-6"><tspan x="72">A real website,</tspan><tspan x="72" dy="96">from one clear idea.</tspan></text>
    <text x="72" y="530" fill="#666666" font-family="Arial, sans-serif" font-size="22"><tspan x="72">Describe the business. Runable plans the pages, writes the first draft,</tspan><tspan x="72" dy="34">shapes the design, and gives you a site ready to publish.</tspan></text>
    <rect x="72" y="620" width="210" height="56" class="ink"/><text x="98" y="655" fill="#ffffff" font-family="Arial, sans-serif" font-size="16">Build your website →</text>
    <rect x="296" y="620" width="180" height="56" class="line"/><text x="320" y="655" fill="#171717" font-family="Arial, sans-serif" font-size="16">Explore templates</text>
    <rect x="72" y="750" width="1296" height="650" class="wash line"/>
    <g filter="url(#shadow)"><rect x="285" y="840" width="870" height="440" class="paper line"/><path d="M285 884H1155" class="thin"/><circle cx="310" cy="862" r="5" class="line"/><circle cx="328" cy="862" r="5" class="line"/><circle cx="346" cy="862" r="5" class="line"/>
      <rect x="350" y="955" width="360" height="34" class="mid"/><rect x="350" y="1018" width="430" height="14" class="mid"/><rect x="350" y="1048" width="310" height="14" class="mid"/><rect x="350" y="1110" width="160" height="52" class="ink"/>
      <rect x="825" y="940" width="250" height="270" fill="#aaa"/><text x="876" y="1084" fill="#ffffff" font-family="Arial, sans-serif" font-size="16">GENERATED VISUAL</text>
    </g>
    <g filter="url(#shadow)"><rect x="390" y="1260" width="660" height="78" class="paper line"/><text x="420" y="1307" fill="#171717" font-family="Arial, sans-serif" font-size="22">Create a modern site for my neighborhood bakery</text><text x="1005" y="1308" fill="#171717" font-family="Arial, sans-serif" font-size="28" font-weight="700">↑</text></g>
    <g><rect x="0" y="1440" width="480" height="170" class="bg line"/><rect x="480" y="1440" width="480" height="170" class="bg line"/><rect x="960" y="1440" width="480" height="170" class="bg line"/>
      <text x="72" y="1510" fill="#171717" font-family="Arial, sans-serif" font-size="64" font-weight="700" letter-spacing="-3">1 prompt</text><text x="72" y="1550" fill="#666666" font-family="Arial, sans-serif" font-size="16">to start a complete site</text>
      <text x="552" y="1510" fill="#171717" font-family="Arial, sans-serif" font-size="64" font-weight="700" letter-spacing="-3">Minutes</text><text x="552" y="1550" fill="#666666" font-family="Arial, sans-serif" font-size="16">from blank page to first draft</text>
      <text x="1032" y="1510" fill="#171717" font-family="Arial, sans-serif" font-size="64" font-weight="700" letter-spacing="-3">0 code</text><text x="1032" y="1550" fill="#666666" font-family="Arial, sans-serif" font-size="16">needed to edit and publish</text></g>
  </g>

  <g id="02-PROCESS" transform="translate(0 1610)">
    <rect width="1440" height="1160" class="bg"/><path d="M0 1160H1440" class="line"/>
    <text x="72" y="100" fill="#666666" font-family="Arial, sans-serif" font-size="14" font-weight="700" letter-spacing="2">01 / CREATION FLOW</text>
    <text x="72" y="180" fill="#171717" font-family="Arial, sans-serif" font-size="64" font-weight="700" letter-spacing="-3"><tspan x="72">Website creation that moves</tspan><tspan x="72" dy="70">at the speed of thought.</tspan></text>
    <text x="790" y="170" fill="#666666" font-family="Arial, sans-serif" font-size="22"><tspan x="790">Move from a plain-language prompt to a tailored draft,</tspan><tspan x="790" dy="34">then refine every detail in one workspace.</tspan></text>
    <g transform="translate(72 370)"><path d="M0 0H520M0 150H520M0 300H520M0 450H520M0 600H520" class="thin"/>
      <text x="0" y="54" fill="#171717" font-family="Arial, sans-serif" font-size="14" font-weight="700" letter-spacing="2">01</text><text x="70" y="52" fill="#171717" font-family="Arial, sans-serif" font-size="28" font-weight="700">Describe the outcome</text><text x="70" y="90" fill="#666666" font-family="Arial, sans-serif" font-size="16">Tell Runable what you do and what visitors should do next.</text>
      <text x="0" y="204" fill="#666666" font-family="Arial, sans-serif" font-size="14" font-weight="700" letter-spacing="2">02</text><text x="70" y="202" fill="#666666" font-family="Arial, sans-serif" font-size="28" font-weight="700">Watch the site take shape</text><text x="70" y="240" fill="#666666" font-family="Arial, sans-serif" font-size="16">Pages, copy, hierarchy, and visual direction arrive together.</text>
      <text x="0" y="354" fill="#666666" font-family="Arial, sans-serif" font-size="14" font-weight="700" letter-spacing="2">03</text><text x="70" y="352" fill="#666666" font-family="Arial, sans-serif" font-size="28" font-weight="700">Refine by asking</text><text x="70" y="390" fill="#666666" font-family="Arial, sans-serif" font-size="16">Change a section, tone, or workflow in natural language.</text>
      <text x="0" y="504" fill="#666666" font-family="Arial, sans-serif" font-size="14" font-weight="700" letter-spacing="2">04</text><text x="70" y="502" fill="#666666" font-family="Arial, sans-serif" font-size="28" font-weight="700">Publish with confidence</text><text x="70" y="540" fill="#666666" font-family="Arial, sans-serif" font-size="16">Connect a domain, check the essentials, and go live.</text></g>
    <g transform="translate(680 350)"><rect width="688" height="690" class="wash line"/><g filter="url(#shadow)"><rect x="80" y="110" width="528" height="420" class="paper line"/><text x="118" y="160" fill="#666666" font-family="Arial, sans-serif" font-size="14" font-weight="700" letter-spacing="2">PROMPT</text><text x="118" y="215" fill="#171717" font-family="Arial, sans-serif" font-size="28" font-weight="700">What are you building?</text><rect x="118" y="260" width="452" height="76" class="line"/><text x="138" y="290" fill="#171717" font-family="Arial, sans-serif" font-size="16"><tspan x="138">A calm, useful website for a neighborhood bakery</tspan><tspan x="138" dy="24">with online ordering.</tspan></text><rect x="118" y="360" width="452" height="76" class="line"/><text x="138" y="405" fill="#666666" font-family="Arial, sans-serif" font-size="16">Home · Menu · About · Visit</text></g></g>
  </g>

  <g id="03-TEMPLATES" transform="translate(0 2770)">
    <rect width="1440" height="990" class="bg"/><path d="M0 990H1440" class="line"/>
    <text x="72" y="100" fill="#666666" font-family="Arial, sans-serif" font-size="14" font-weight="700" letter-spacing="2">02 / STARTING POINTS</text><text x="72" y="185" fill="#171717" font-family="Arial, sans-serif" font-size="64" font-weight="700" letter-spacing="-3"><tspan x="72">Your blank page already</tspan><tspan x="72" dy="70">knows where to begin.</tspan></text>
    <text x="790" y="170" fill="#666666" font-family="Arial, sans-serif" font-size="22"><tspan x="790">Start with AI or choose a proven structure.</tspan><tspan x="790" dy="34">Either path becomes a site shaped around your goal.</tspan></text>
    <g transform="translate(72 390)"><rect width="392" height="500" class="paper line"/><rect x="16" y="16" width="360" height="405" class="wash"/><text x="124" y="230" fill="#171717" font-family="Arial, sans-serif" font-size="14" font-weight="700" letter-spacing="2">LOCAL SERVICE</text><text x="16" y="465" fill="#171717" font-family="Arial, sans-serif" font-size="28" font-weight="700">Northline Studio</text>
      <rect x="428" width="392" height="500" class="paper line"/><rect x="444" y="16" width="360" height="405" class="mid"/><text x="552" y="230" fill="#171717" font-family="Arial, sans-serif" font-size="14" font-weight="700" letter-spacing="2">ONLINE STORE</text><text x="444" y="465" fill="#171717" font-family="Arial, sans-serif" font-size="28" font-weight="700">Field Objects</text>
      <rect x="856" width="392" height="500" class="paper line"/><rect x="872" y="16" width="360" height="405" class="wash"/><text x="980" y="230" fill="#171717" font-family="Arial, sans-serif" font-size="14" font-weight="700" letter-spacing="2">CONSULTANT</text><text x="872" y="465" fill="#171717" font-family="Arial, sans-serif" font-size="28" font-weight="700">Common Ground</text></g>
  </g>

  <g id="04-SHOWCASE" transform="translate(0 3760)">
    <rect width="1440" height="1120" class="bg"/><path d="M0 1120H1440" class="line"/>
    <text x="72" y="100" fill="#666666" font-family="Arial, sans-serif" font-size="14" font-weight="700" letter-spacing="2">03 / BUSINESS OUTCOMES</text><text x="72" y="185" fill="#171717" font-family="Arial, sans-serif" font-size="64" font-weight="700" letter-spacing="-3"><tspan x="72">One website. Every move</tspan><tspan x="72" dy="70">your business makes.</tspan></text>
    <text x="790" y="170" fill="#666666" font-family="Arial, sans-serif" font-size="22"><tspan x="790">Launch what you need today, then add what helps you</tspan><tspan x="790" dy="34">sell, book, teach, or grow tomorrow.</tspan></text>
    <g transform="translate(72 340)"><rect width="170" height="50" class="ink"/><text x="27" y="31" fill="#ffffff" font-family="Arial, sans-serif" font-size="16">Online store</text><rect x="182" width="130" height="50" class="line"/><text x="211" y="31" fill="#171717" font-family="Arial, sans-serif" font-size="16">Bookings</text><rect x="324" width="125" height="50" class="line"/><text x="348" y="31" fill="#171717" font-family="Arial, sans-serif" font-size="16">Portfolio</text><rect x="461" width="118" height="50" class="line"/><text x="487" y="31" fill="#171717" font-family="Arial, sans-serif" font-size="16">Courses</text><rect x="591" width="110" height="50" class="line"/><text x="617" y="31" fill="#171717" font-family="Arial, sans-serif" font-size="16">Events</text></g>
    <g transform="translate(72 430)"><rect width="1296" height="570" class="paper line"/><path d="M620 0V570" class="line"/><text x="50" y="72" fill="#666666" font-family="Arial, sans-serif" font-size="14" font-weight="700" letter-spacing="2">ONLINE STORE</text><text x="50" y="150" fill="#171717" font-family="Arial, sans-serif" font-size="64" font-weight="700" letter-spacing="-3"><tspan x="50">Turn products into a</tspan><tspan x="50" dy="70">store people trust.</tspan></text><text x="50" y="330" fill="#666666" font-family="Arial, sans-serif" font-size="22"><tspan x="50">Present the range clearly, take secure payments,</tspan><tspan x="50" dy="34">and keep discovery-to-checkout simple.</tspan></text><rect x="50" y="460" width="245" height="54" class="line"/><text x="75" y="494" fill="#171717" font-family="Arial, sans-serif" font-size="16">Build this kind of site →</text>
      <rect x="620" width="676" height="570" class="wash"/><g filter="url(#shadow)"><rect x="740" y="100" width="430" height="350" class="paper line"/><text x="856" y="250" fill="#171717" font-family="Arial, sans-serif" font-size="28" font-weight="700">STOREFRONT</text><text x="834" y="292" fill="#666666" font-family="Arial, sans-serif" font-size="16">product grid + cart + checkout</text></g></g>
  </g>

  <g id="05-FEATURES" transform="translate(0 4880)">
    <rect width="1440" height="1270" class="bg"/><path d="M0 1270H1440" class="line"/>
    <text x="72" y="100" fill="#666666" font-family="Arial, sans-serif" font-size="14" font-weight="700" letter-spacing="2">04 / EDITING</text><text x="72" y="185" fill="#171717" font-family="Arial, sans-serif" font-size="64" font-weight="700" letter-spacing="-3"><tspan x="72">Deep control, without the</tspan><tspan x="72" dy="70">steep learning curve.</tspan></text><text x="790" y="170" fill="#666666" font-family="Arial, sans-serif" font-size="22"><tspan x="790">Use AI for speed and direct editing for precision.</tspan><tspan x="790" dy="34">Every choice stays yours.</tspan></text>
    <g transform="translate(72 355)"><rect width="640" height="380" class="bg line"/><rect x="28" y="28" width="584" height="200" class="wash line"/><text x="140" y="136" fill="#171717" font-family="Arial, sans-serif" font-size="22">“Make this section more premium”</text><text x="28" y="292" fill="#171717" font-family="Arial, sans-serif" font-size="28" font-weight="700">Create by conversation</text><text x="28" y="330" fill="#666666" font-family="Arial, sans-serif" font-size="16">Describe the change and see it applied in context.</text>
      <rect x="656" width="640" height="380" class="bg line"/><rect x="684" y="28" width="584" height="200" class="wash line"/><text x="884" y="136" fill="#171717" font-family="Arial, sans-serif" font-size="22">drag ↔ resize ↕ reorder</text><text x="684" y="292" fill="#171717" font-family="Arial, sans-serif" font-size="28" font-weight="700">Edit directly</text><text x="684" y="330" fill="#666666" font-family="Arial, sans-serif" font-size="16">Move, resize, rewrite, and rearrange the details.</text>
      <rect y="396" width="640" height="380" class="bg line"/><rect x="28" y="424" width="584" height="200" class="wash line"/><text x="196" y="532" fill="#171717" font-family="Arial, sans-serif" font-size="22">reusable section library</text><text x="28" y="688" fill="#171717" font-family="Arial, sans-serif" font-size="28" font-weight="700">Add what comes next</text><text x="28" y="726" fill="#666666" font-family="Arial, sans-serif" font-size="16">Bring in new sections as your site grows.</text>
      <rect x="656" y="396" width="640" height="380" class="bg line"/><rect x="684" y="424" width="584" height="200" class="wash line"/><text x="875" y="532" fill="#171717" font-family="Arial, sans-serif" font-size="22">Aa  ● ● ●  16 / 24</text><text x="684" y="688" fill="#171717" font-family="Arial, sans-serif" font-size="28" font-weight="700">Keep the brand consistent</text><text x="684" y="726" fill="#666666" font-family="Arial, sans-serif" font-size="16">Update type, color, spacing, and buttons everywhere.</text></g>
  </g>

  <g id="06-DOMAIN" transform="translate(0 6150)">
    <rect width="1440" height="720" class="dark"/><text x="72" y="105" fill="#ffffff" font-family="Arial, sans-serif" font-size="14" font-weight="700" letter-spacing="2">05 / DOMAIN</text><text x="72" y="205" fill="#ffffff" font-family="Arial, sans-serif" font-size="64" font-weight="700" letter-spacing="-3"><tspan x="72">Find the address that makes</tspan><tspan x="72" dy="70">your idea official.</tspan></text><text x="72" y="380" fill="#ffffff" font-family="Arial, sans-serif" font-size="22"><tspan x="72">Search for a domain, connect one you already own, and publish</tspan><tspan x="72" dy="34">with SSL and fast hosting included.</tspan></text>
    <rect x="72" y="495" width="930" height="76" class="paper"/><text x="100" y="542" fill="#666666" font-family="Arial, sans-serif" font-size="22">Search yourbrand.com</text><rect x="1002" y="495" width="190" height="76" class="mid"/><text x="1048" y="542" fill="#171717" font-family="Arial, sans-serif" font-size="22">Search →</text><text x="72" y="620" fill="#ffffff" font-family="Arial, sans-serif" font-size="16">Already have a domain? Connect it in a few steps.</text>
  </g>

  <g id="07-MOBILE" transform="translate(0 6870)">
    <rect width="1440" height="1130" class="bg"/><path d="M0 1130H1440" class="line"/><text x="72" y="105" fill="#666666" font-family="Arial, sans-serif" font-size="14" font-weight="700" letter-spacing="2">06 / MOBILE CONTROL</text><text x="72" y="200" fill="#171717" font-family="Arial, sans-serif" font-size="64" font-weight="700" letter-spacing="-3"><tspan x="72">Keep the whole business</tspan><tspan x="72" dy="70">within reach.</tspan></text><text x="72" y="390" fill="#666666" font-family="Arial, sans-serif" font-size="22"><tspan x="72">See what is happening, make a quick update, and respond</tspan><tspan x="72" dy="34">when it matters—from your phone or desktop.</tspan></text><text x="72" y="530" fill="#171717" font-family="Arial, sans-serif" font-size="28" font-weight="700">On your phone</text><text x="72" y="575" fill="#666666" font-family="Arial, sans-serif" font-size="16"><tspan x="72">Review activity, update content, and act on new leads</tspan><tspan x="72" dy="24">wherever the day takes you.</tspan></text><text x="72" y="690" fill="#171717" font-family="Arial, sans-serif" font-size="28" font-weight="700">From the dashboard</text><text x="72" y="735" fill="#666666" font-family="Arial, sans-serif" font-size="16"><tspan x="72">Manage pages, domains, publishing, performance,</tspan><tspan x="72" dy="24">and growth from one clear home.</tspan></text><rect x="72" y="850" width="170" height="54" class="ink"/><text x="102" y="884" fill="#ffffff" font-family="Arial, sans-serif" font-size="16">Get started →</text>
    <rect x="720" y="80" width="648" height="930" class="wash line"/><g filter="url(#shadow)"><rect x="800" y="265" width="190" height="430" rx="28" class="paper line"/><rect x="825" y="325" width="140" height="42" class="mid"/><rect x="825" y="390" width="140" height="120" class="wash"/><rect x="825" y="535" width="140" height="34" class="mid"/><rect x="825" y="590" width="140" height="34" class="mid"/>
      <rect x="1020" y="215" width="280" height="500" class="paper line"/><rect x="1045" y="250" width="230" height="42" class="mid"/><rect x="1045" y="315" width="230" height="150" class="wash"/><rect x="1045" y="490" width="230" height="34" class="mid"/><rect x="1045" y="545" width="230" height="34" class="mid"/><rect x="1045" y="600" width="230" height="34" class="mid"/></g>
  </g>

  <g id="08-PRICING" transform="translate(0 8000)">
    <rect width="1440" height="1190" class="bg"/><path d="M0 1190H1440" class="line"/><text x="72" y="105" fill="#666666" font-family="Arial, sans-serif" font-size="14" font-weight="700" letter-spacing="2">07 / PRICING</text><text x="72" y="200" fill="#171717" font-family="Arial, sans-serif" font-size="64" font-weight="700" letter-spacing="-3"><tspan x="72">Start free. Upgrade when</tspan><tspan x="72" dy="70">the site earns its place.</tspan></text><text x="790" y="180" fill="#666666" font-family="Arial, sans-serif" font-size="22"><tspan x="790">Simple plans for first launches, growing businesses,</tspan><tspan x="790" dy="34">and teams managing more than one site.</tspan></text>
    <g transform="translate(72 390)"><rect width="432" height="680" class="paper line"/><text x="32" y="58" fill="#666666" font-family="Arial, sans-serif" font-size="14" font-weight="700" letter-spacing="2">FREE</text><text x="32" y="115" fill="#171717" font-family="Arial, sans-serif" font-size="28" font-weight="700">Find the shape of the idea.</text><text x="32" y="205" fill="#171717" font-family="Arial, sans-serif" font-size="64" font-weight="700" letter-spacing="-3">$0</text><text x="32" y="285" fill="#171717" font-family="Arial, sans-serif" font-size="22">• Draft one website</text><text x="32" y="330" fill="#171717" font-family="Arial, sans-serif" font-size="22">• Runable subdomain</text><text x="32" y="375" fill="#171717" font-family="Arial, sans-serif" font-size="22">• Core AI creation tools</text><rect x="32" y="585" width="368" height="56" class="line"/><text x="170" y="620" fill="#171717" font-family="Arial, sans-serif" font-size="16">Start free</text>
      <rect x="432" width="432" height="680" class="wash line"/><text x="464" y="58" fill="#666666" font-family="Arial, sans-serif" font-size="14" font-weight="700" letter-spacing="2">LAUNCH · MOST POPULAR</text><text x="464" y="115" fill="#171717" font-family="Arial, sans-serif" font-size="28" font-weight="700">Publish a professional site.</text><text x="464" y="205" fill="#171717" font-family="Arial, sans-serif" font-size="64" font-weight="700" letter-spacing="-3">$15</text><text x="464" y="285" fill="#171717" font-family="Arial, sans-serif" font-size="22">• Custom domain</text><text x="464" y="330" fill="#171717" font-family="Arial, sans-serif" font-size="22">• Hosting, SSL, analytics</text><text x="464" y="375" fill="#171717" font-family="Arial, sans-serif" font-size="22">• Full AI and visual editing</text><rect x="464" y="585" width="368" height="56" class="ink"/><text x="590" y="620" fill="#ffffff" font-family="Arial, sans-serif" font-size="16">Choose Launch</text>
      <rect x="864" width="432" height="680" class="paper line"/><text x="896" y="58" fill="#666666" font-family="Arial, sans-serif" font-size="14" font-weight="700" letter-spacing="2">SCALE</text><text x="896" y="115" fill="#171717" font-family="Arial, sans-serif" font-size="28" font-weight="700">Grow sites, work, and reach.</text><text x="896" y="205" fill="#171717" font-family="Arial, sans-serif" font-size="64" font-weight="700" letter-spacing="-3">$39</text><text x="896" y="285" fill="#171717" font-family="Arial, sans-serif" font-size="22">• Multiple published sites</text><text x="896" y="330" fill="#171717" font-family="Arial, sans-serif" font-size="22">• Team collaboration</text><text x="896" y="375" fill="#171717" font-family="Arial, sans-serif" font-size="22">• Advanced analytics</text><rect x="896" y="585" width="368" height="56" class="line"/><text x="1022" y="620" fill="#171717" font-family="Arial, sans-serif" font-size="16">Choose Scale</text></g>
  </g>

  <g id="09-FAQ" transform="translate(0 9190)">
    <rect width="1440" height="1250" class="bg"/><path d="M0 1250H1440" class="line"/><text x="72" y="105" fill="#666666" font-family="Arial, sans-serif" font-size="14" font-weight="700" letter-spacing="2">08 / FAQ</text><text x="72" y="205" fill="#171717" font-family="Arial, sans-serif" font-size="64" font-weight="700" letter-spacing="-3"><tspan x="72">Questions,</tspan><tspan x="72" dy="70">answered clearly.</tspan></text>
    <g transform="translate(510 110)"><path d="M0 0H858M0 145H858M0 290H858M0 435H858M0 580H858M0 725H858M0 870H858" class="thin"/>
      <text x="0" y="72" fill="#171717" font-family="Arial, sans-serif" font-size="28" font-weight="700">What is Runable’s AI website builder?</text><text x="825" y="72" fill="#171717" font-family="Arial, sans-serif" font-size="28" font-weight="700">+</text>
      <text x="0" y="217" fill="#171717" font-family="Arial, sans-serif" font-size="28" font-weight="700">Do I need coding or design experience?</text><text x="825" y="217" fill="#171717" font-family="Arial, sans-serif" font-size="28" font-weight="700">+</text>
      <text x="0" y="362" fill="#171717" font-family="Arial, sans-serif" font-size="28" font-weight="700">Can I use my own domain?</text><text x="825" y="362" fill="#171717" font-family="Arial, sans-serif" font-size="28" font-weight="700">+</text>
      <text x="0" y="507" fill="#171717" font-family="Arial, sans-serif" font-size="28" font-weight="700">Can I optimize for Google and AI answers?</text><text x="825" y="507" fill="#171717" font-family="Arial, sans-serif" font-size="28" font-weight="700">+</text>
      <text x="0" y="652" fill="#171717" font-family="Arial, sans-serif" font-size="28" font-weight="700">Can I sell products or take bookings?</text><text x="825" y="652" fill="#171717" font-family="Arial, sans-serif" font-size="28" font-weight="700">+</text>
      <text x="0" y="797" fill="#171717" font-family="Arial, sans-serif" font-size="28" font-weight="700">How quickly can I publish?</text><text x="825" y="797" fill="#171717" font-family="Arial, sans-serif" font-size="28" font-weight="700">+</text></g>
  </g>

  <g id="10-CTA-FOOTER" transform="translate(0 10440)">
    <rect width="1440" height="500" class="wash"/><text x="565" y="100" fill="#666666" font-family="Arial, sans-serif" font-size="14" font-weight="700" letter-spacing="2">YOUR NEXT WEBSITE STARTS HERE</text><text x="250" y="220" fill="#171717" font-family="Arial, sans-serif" font-size="64" font-weight="700" letter-spacing="-3">Bring one clear idea.</text><text x="315" y="290" fill="#171717" font-family="Arial, sans-serif" font-size="64" font-weight="700" letter-spacing="-3">Leave with something real.</text><rect x="595" y="370" width="250" height="58" class="ink"/><text x="635" y="406" fill="#ffffff" font-family="Arial, sans-serif" font-size="16">Build your website →</text>
    <rect y="500" width="1440" height="300" class="dark"/><text x="72" y="575" fill="#ffffff" font-family="Arial, sans-serif" font-size="28" font-weight="700">RUNABLE</text><text x="72" y="620" fill="#ffffff" font-family="Arial, sans-serif" font-size="16">The AI workspace for turning ideas into useful work.</text><text x="650" y="575" fill="#ffffff" font-family="Arial, sans-serif" font-size="14" font-weight="700" letter-spacing="2">PRODUCT</text><text x="650" y="615" fill="#ffffff" font-family="Arial, sans-serif" font-size="16">Websites · Features · Pricing</text><text x="920" y="575" fill="#ffffff" font-family="Arial, sans-serif" font-size="14" font-weight="700" letter-spacing="2">RESOURCES</text><text x="920" y="615" fill="#ffffff" font-family="Arial, sans-serif" font-size="16">Templates · FAQ · Guides</text><text x="1180" y="575" fill="#ffffff" font-family="Arial, sans-serif" font-size="14" font-weight="700" letter-spacing="2">COMPANY</text><text x="1180" y="615" fill="#ffffff" font-family="Arial, sans-serif" font-size="16">About · Privacy · Terms</text><path d="M72 700H1368" stroke="#777"/><text x="72" y="748" fill="#ffffff" font-family="Arial, sans-serif" font-size="16">© 2026 Runable</text><text x="1120" y="748" fill="#ffffff" font-family="Arial, sans-serif" font-size="16">Low-fidelity concept wireframe</text>
  </g>
</svg>
